REM MD5 2cc16f32cd34f00868add6ef0da9f0d6
FILE "Shadow Madness (Italy) (Disc 2).bin" BINARY
  TRACK 01 MODE2/2352
    INDEX 01 00:00:00
  TRACK 02 AUDIO
    INDEX 00 57:29:26
    INDEX 01 57:31:26
  TRACK 03 AUDIO
    INDEX 00 61:36:12
    INDEX 01 61:38:12
  TRACK 04 AUDIO
    INDEX 00 64:45:64
    INDEX 01 64:47:64
REM LEADOUT 70:00:64
